<?xml version="1.0" encoding="iso-8859-1"?>
<!-- Generator: Adobe Illustrator 22.1.0, SVG Export Plug-In . SVG Version: 6.00 Build 0)  -->
<svg xmlns="http://www.w3.org/2000/svg" xmlns:xlink="http://www.w3.org/1999/xlink" version="1.1" id="Layer_1_1_" x="0px" y="0px" viewBox="0 0 64 64" style="enable-background:new 0 0 64 64;" xml:space="preserve" width="512" height="512">
<g>
	<path d="M21.007,25L60.325,9.554l-3.788-8.839L4.334,21.224C3.575,21.085,2.798,21,2,21H1v20v14v8h62v-8V41V25H21.007z M14.96,33   c-0.141-1.842-0.669-3.577-1.5-5.126L18.586,33H14.96z M43.624,13.966l-4.096,1.609l2.313-6.938l4.095-1.609L43.624,13.966z    M48.362,6.075l4.096-1.609l-2.312,6.938l-4.096,1.609L48.362,6.075z M37.104,16.528l-4.096,1.609l2.313-6.938l4.096-1.609   L37.104,16.528z M30.583,19.09l-4.095,1.609L28.8,13.76l4.096-1.609L30.583,19.09z M24.063,21.651l-4.096,1.609l2.313-6.939   l4.096-1.609L24.063,21.651z M17.542,24.213L15.539,25h-2.095l2.295-6.109l4.116-1.617L17.542,24.213z M21.414,33l-6-6h5.172l6,6   H21.414z M29.414,33l-6-6h5.172l6,6H29.414z M37.414,33l-6-6h5.172l6,6H37.414z M45.414,33l-6-6h5.172l6,6H45.414z M53.414,33l-6-6   h5.172l6,6H53.414z M61,32.586L55.414,27H61V32.586z M57.675,8.446l-5.105,2.006l2.312-6.938l0.581-0.228L57.675,8.446z    M13.232,19.876l-1.908,5.078c-1.123-1.157-2.461-2.101-3.945-2.779L13.232,19.876z M3,23.045c5.27,0.477,9.479,4.686,9.955,9.955   H3V23.045z M61,43v10H43V43H61z M41,53H23V43h18V53z M21,53H3V43h18V53z M61,61H3v-6h58V61z M3,41v-6h11h1h46v6H3z"/>
	<rect x="5" y="37" width="16" height="2"/>
	<rect x="5" y="45" width="14" height="2"/>
	<rect x="25" y="45" width="14" height="2"/>
	<rect x="45" y="45" width="14" height="2"/>
	<rect x="7" y="57" width="2" height="2"/>
	<rect x="11" y="57" width="2" height="2"/>
	<rect x="15" y="57" width="2" height="2"/>
	<rect x="27" y="57" width="10" height="2"/>
	<rect x="55" y="57" width="2" height="2"/>
	<rect x="51" y="57" width="2" height="2"/>
	<rect x="47" y="57" width="2" height="2"/>
</g>
</svg>
