<?xml version="1.0" encoding="iso-8859-1"?>
<!-- Generator: Adobe Illustrator 22.1.0, SVG Export Plug-In . SVG Version: 6.00 Build 0)  -->
<svg xmlns="http://www.w3.org/2000/svg" xmlns:xlink="http://www.w3.org/1999/xlink" version="1.1" id="Layer_1_1_" x="0px" y="0px" viewBox="0 0 64 64" style="enable-background:new 0 0 64 64;" xml:space="preserve" width="512" height="512">
<g>
	<polygon points="17.542,24.213 19.855,17.274 15.739,18.891 13.444,25 15.539,25  "/>
	<path d="M13.232,19.876l-5.853,2.299c1.484,0.678,2.823,1.622,3.945,2.779L13.232,19.876z"/>
	<polygon points="26.375,14.713 22.28,16.322 19.967,23.26 24.063,21.651  "/>
	<polygon points="32.896,12.151 28.8,13.76 26.488,20.699 30.583,19.09  "/>
	<path d="M21,43H3v10h18V43z M19,47H5v-2h14V47z"/>
	<path d="M3,23.045V33h9.955C12.479,27.73,8.27,23.522,3,23.045z"/>
	<polygon points="50.586,33 44.586,27 39.414,27 45.414,33  "/>
	<polygon points="42.586,33 36.586,27 31.414,27 37.414,33  "/>
	<polygon points="58.586,33 52.586,27 47.414,27 53.414,33  "/>
	<polygon points="34.586,33 28.586,27 23.414,27 29.414,33  "/>
	<polygon points="52.457,4.466 48.362,6.075 46.049,13.014 50.145,11.404  "/>
	<polygon points="45.937,7.028 41.841,8.637 39.529,15.575 43.624,13.966  "/>
	<polygon points="39.417,9.59 35.321,11.198 33.008,18.137 37.104,16.528  "/>
	<polygon points="55.463,3.286 54.882,3.514 52.57,10.452 57.675,8.446  "/>
	<path d="M14,35H3v6h58v-6H15H14z M21,39H5v-2h16V39z"/>
	<path d="M43,53h18V43H43V53z M45,45h14v2H45V45z"/>
	<polygon points="26.586,33 20.586,27 15.414,27 21.414,33  "/>
	<path d="M23,43v10h18V43H23z M39,47H25v-2h14V47z"/>
	<path d="M3,61h58v-6H3V61z M55,57h2v2h-2V57z M51,57h2v2h-2V57z M47,57h2v2h-2V57z M27,57h10v2H27V57z M15,57h2v2h-2V57z M11,57h2   v2h-2V57z M7,57h2v2H7V57z"/>
	<polygon points="55.414,27 61,32.586 61,27  "/>
	<path d="M14.96,33h3.626l-5.126-5.126C14.292,29.423,14.82,31.158,14.96,33z"/>
</g>
</svg>
