<svg height="512pt" viewBox="-43 0 512 512" width="512pt" xmlns="http://www.w3.org/2000/svg"><path d="m418.074219 40.910156v430.179688c0 18.390625-14.914063 33.304687-33.3125 33.304687h-310.160157c-18.394531 0-33.308593-14.914062-33.308593-33.304687v-430.179688c0-18.390625 14.914062-33.304687 33.308593-33.304687h310.160157c18.398437 0 33.3125 14.914062 33.3125 33.304687zm0 0" fill="#d33752"/><path d="m418.074219 40.910156v430.179688c0 18.390625-14.914063 33.304687-33.3125 33.304687h-280.425781c-18.402344 0-33.316407-14.914062-33.316407-33.304687v-430.179688c0-18.390625 14.914063-33.304687 33.316407-33.304687h280.425781c18.398437 0 33.3125 14.914062 33.3125 33.304687zm0 0" fill="#ef5e72"/><path d="m78.949219 79.953125c0 5.472656-2.21875 10.421875-5.800781 14.011719-3.585938 3.578125-8.546876 5.796875-14.019532 5.796875h-31.703125c-10.949219 0-19.820312-8.871094-19.820312-19.808594 0-5.476563 2.21875-10.433594 5.808593-14.011719 3.578126-3.589844 8.535157-5.808594 14.011719-5.808594h31.703125c10.949219 0 19.820313 8.871094 19.820313 19.820313zm0 0" fill="#f4be53"/><path d="m78.949219 79.953125c0 5.472656-2.21875 10.421875-5.800781 14.011719-3.585938 3.578125-8.546876 5.796875-14.019532 5.796875h-6.933594c-10.941406 0-19.8125-8.871094-19.8125-19.808594 0-5.476563 2.21875-10.433594 5.800782-14.011719 3.585937-3.589844 8.546875-5.808594 14.011718-5.808594h6.933594c10.949219 0 19.820313 8.871094 19.820313 19.820313zm0 0" fill="#f7e352"/><path d="m78.949219 361.636719c0 5.476562-2.21875 10.421875-5.800781 14.011719-3.585938 3.578124-8.546876 5.800781-14.019532 5.800781h-31.703125c-10.949219 0-19.820312-8.871094-19.820312-19.8125 0-5.472657 2.21875-10.433594 5.808593-14.011719 3.578126-3.589844 8.535157-5.808594 14.011719-5.808594h31.703125c10.949219 0 19.820313 8.871094 19.820313 19.820313zm0 0" fill="#f4be53"/><path d="m78.949219 361.636719c0 5.476562-2.21875 10.421875-5.800781 14.011719-3.585938 3.578124-8.546876 5.800781-14.019532 5.800781h-6.933594c-10.941406 0-19.8125-8.871094-19.8125-19.8125 0-5.472657 2.21875-10.433594 5.800782-14.011719 3.585937-3.589844 8.546875-5.808594 14.011718-5.808594h6.933594c10.949219 0 19.820313 8.871094 19.820313 19.820313zm0 0" fill="#f7e352"/><path d="m78.949219 432.058594c0 5.476562-2.21875 10.421875-5.800781 14.011718-3.585938 3.578126-8.546876 5.800782-14.019532 5.800782h-31.703125c-10.949219 0-19.820312-8.871094-19.820312-19.8125 0-5.472656 2.21875-10.433594 5.808593-14.011719 3.578126-3.589844 8.535157-5.808594 14.011719-5.808594h31.703125c10.949219 0 19.820313 8.871094 19.820313 19.820313zm0 0" fill="#f4be53"/><path d="m78.949219 432.058594c0 5.476562-2.21875 10.421875-5.800781 14.011718-3.585938 3.578126-8.546876 5.800782-14.019532 5.800782h-6.933594c-10.941406 0-19.8125-8.871094-19.8125-19.8125 0-5.472656 2.21875-10.433594 5.800782-14.011719 3.585937-3.589844 8.546875-5.808594 14.011718-5.808594h6.933594c10.949219 0 19.820313 8.871094 19.820313 19.820313zm0 0" fill="#f7e352"/><path d="m78.949219 291.214844c0 5.476562-2.21875 10.425781-5.800781 14.011718-3.585938 3.582032-8.546876 5.800782-14.019532 5.800782h-31.703125c-10.949219 0-19.820312-8.871094-19.820312-19.8125 0-5.472656 2.21875-10.429688 5.808593-14.011719 3.578126-3.585937 8.535157-5.808594 14.011719-5.808594h31.703125c10.949219 0 19.820313 8.871094 19.820313 19.820313zm0 0" fill="#f4be53"/><path d="m78.949219 291.214844c0 5.476562-2.21875 10.425781-5.800781 14.011718-3.585938 3.582032-8.546876 5.800782-14.019532 5.800782h-6.933594c-10.941406 0-19.8125-8.871094-19.8125-19.8125 0-5.472656 2.21875-10.429688 5.800782-14.011719 3.585937-3.585937 8.546875-5.808594 14.011718-5.808594h6.933594c10.949219 0 19.820313 8.871094 19.820313 19.820313zm0 0" fill="#f7e352"/><path d="m78.949219 220.792969c0 5.476562-2.21875 10.425781-5.800781 14.011719-3.585938 3.582031-8.546876 5.800781-14.019532 5.800781h-31.703125c-10.949219 0-19.820312-8.871094-19.820312-19.8125 0-5.472657 2.21875-10.429688 5.808593-14.011719 3.578126-3.585938 8.535157-5.808594 14.011719-5.808594h31.703125c10.949219 0 19.820313 8.871094 19.820313 19.820313zm0 0" fill="#f4be53"/><path d="m78.949219 220.792969c0 5.476562-2.21875 10.425781-5.800781 14.011719-3.585938 3.582031-8.546876 5.800781-14.019532 5.800781h-6.933594c-10.941406 0-19.8125-8.871094-19.8125-19.8125 0-5.472657 2.21875-10.429688 5.800782-14.011719 3.585937-3.585938 8.546875-5.808594 14.011718-5.808594h6.933594c10.949219 0 19.820313 8.871094 19.820313 19.820313zm0 0" fill="#f7e352"/><path d="m78.949219 150.371094c0 5.476562-2.21875 10.425781-5.800781 14.011718-3.585938 3.582032-8.546876 5.800782-14.019532 5.800782h-31.703125c-10.949219 0-19.820312-8.871094-19.820312-19.8125 0-5.472656 2.21875-10.429688 5.808593-14.011719 3.578126-3.585937 8.535157-5.808594 14.011719-5.808594h31.703125c10.949219 0 19.820313 8.871094 19.820313 19.820313zm0 0" fill="#f4be53"/><path d="m78.949219 150.371094c0 5.476562-2.21875 10.425781-5.800781 14.011718-3.585938 3.582032-8.546876 5.800782-14.019532 5.800782h-6.933594c-10.941406 0-19.8125-8.871094-19.8125-19.8125 0-5.472656 2.21875-10.429688 5.800782-14.011719 3.585937-3.585937 8.546875-5.808594 14.011718-5.808594h6.933594c10.949219 0 19.820313 8.871094 19.820313 19.820313zm0 0" fill="#f7e352"/><path d="m363.328125 341.386719-32.507813 23.039062c-20.316406 14.390625-47.699218 13.511719-67.078124-2.101562-12.023438-9.695313-23.75-19.6875-35.183594-29.976563-11.496094-10.34375-22.691406-21.003906-33.574219-31.949218-9.714844-9.769532-19.183594-19.777344-28.417969-30.03125-10.308594-11.441407-20.304687-23.175782-30.003906-35.222657-13.605469-16.875-16.015625-39.820312-6.921875-58.875 1.351563-2.832031 2.949219-5.570312 4.8125-8.203125l23.039063-32.507812c4.519531-6.363282 12.4375-8.644532 19.3125-6.453125 2.519531.800781 4.910156 2.207031 6.929687 4.234375l35.648437 35.648437c6.527344 6.53125 6.746094 17.050781.492188 23.84375l-19.953125 21.695313c-4.054687 4.410156-4.453125 11.09375-.910156 15.933594 1.046875 1.433593 2.105469 2.859374 3.183593 4.273437 8.375 11.085937 17.40625 21.539063 27.074219 31.347656 10.832031 11.011719 22.464844 21.222657 34.898438 30.617188 1.40625 1.078125 2.832031 2.136719 4.257812 3.175781 4.839844 3.542969 11.511719 3.140625 15.933594-.921875l21.695313-19.953125c6.792968-6.242188 17.3125-6.023438 23.839843.503906l35.648438 35.648438c7.546875 7.542968 6.488281 20.070312-2.214844 26.234375zm0 0" fill="#405968"/><path d="m211.382812 160.992188 7.996094 7.996093c6.53125 6.53125 6.75 17.046875.5 23.84375l-19.953125 21.695313c-4.058593 4.414062-4.460937 11.09375-.921875 15.929687 1.960938 2.675781 3.953125 5.320313 5.988282 7.921875-4.847657-4.929687-9.507813-9.804687-13.980469-15.917968-3.546875-4.835938-3.144531-11.519532.917969-15.933594l19.949218-21.691406c6.253906-6.796876 6.035156-17.3125-.496094-23.84375zm0 0" fill="#273c47"/><path d="m367.804688 317.933594c4.941406 7.554687 3.226562 17.996094-4.484376 23.457031l-32.5 23.039063c-20.316406 14.386718-47.703124 13.511718-67.082031-2.105469-46.949219-37.839844-89.339843-80.230469-127.175781-127.175781-8.945312-11.101563-13.054688-24.832032-12.230469-38.347657 1.867188 7.914063 5.492188 15.488281 10.839844 22.128907 37.835937 46.949218 80.226563 89.339843 127.175781 127.179687 19.378906 15.617187 46.765625 16.488281 67.082032 2.105469l32.503906-23.042969c2.707031-1.914063 4.671875-4.441406 5.871094-7.238281zm0 0" fill="#273c47"/><path d="m183.738281 133.34375 35.644531 35.644531c6.527344 6.53125 6.746094 17.050781.492188 23.847657l-11.824219 12.851562-58.671875-58.671875 8.113282-11.453125c6.171874-8.710938 18.695312-9.769531 26.246093-2.21875zm0 0" fill="#fff6e3"/><path d="m329.902344 279.507812 35.644531 35.644532c7.542969 7.542968 6.484375 20.066406-2.226563 26.238281l-11.449218 8.117187-58.675782-58.675781 12.851563-11.820312c6.800781-6.25 17.324219-6.035157 23.855469.496093zm0 0" fill="#fff6e3"/><path d="m211.382812 160.992188 7.996094 7.996093c6.53125 6.53125 6.75 17.046875.5 23.84375l-11.828125 12.859375-7.996093-8 11.824218-12.859375c6.257813-6.792969 6.035156-17.308593-.496094-23.839843zm0 0" fill="#ddd3c3"/><path d="m367.804688 317.929688c4.941406 7.558593 3.226562 17.996093-4.484376 23.460937l-11.449218 8.117187-10.066406-10.066406 20.128906-14.269531c2.707031-1.917969 4.671875-4.445313 5.871094-7.242187zm0 0" fill="#ddd3c3"/><path d="m418.074219 116.035156c-4.199219 0-7.601563 3.402344-7.601563 7.601563v347.453125c0 14.171875-11.535156 25.703125-25.710937 25.703125h-236.605469c-4.199219 0-7.605469 3.402343-7.605469 7.601562s3.40625 7.605469 7.605469 7.605469h236.601562c22.566407 0 40.921876-18.351562 40.921876-40.910156v-347.453125c0-4.199219-3.40625-7.601563-7.605469-7.601563zm0 0"/><path d="m384.757812 0h-310.160156c-22.554687 0-40.90625 18.351562-40.90625 40.910156v11.613282h-6.269531c-15.121094 0-27.421875 12.304687-27.421875 27.421874 0 15.121094 12.300781 27.421876 27.421875 27.421876h6.269531v15.578124h-6.269531c-15.121094 0-27.421875 12.300782-27.421875 27.421876 0 15.121093 12.300781 27.421874 27.421875 27.421874h6.269531v15.578126h-6.269531c-15.121094 0-27.421875 12.300781-27.421875 27.421874 0 15.121094 12.300781 27.421876 27.421875 27.421876h6.269531v15.578124h-6.269531c-15.121094 0-27.421875 12.300782-27.421875 27.421876 0 15.121093 12.300781 27.421874 27.421875 27.421874h6.269531v15.578126h-6.269531c-15.121094 0-27.421875 12.300781-27.421875 27.421874 0 15.117188 12.300781 27.421876 27.421875 27.421876h6.269531v15.578124h-6.269531c-15.121094 0-27.421875 12.300782-27.421875 27.421876 0 15.117187 12.300781 27.421874 27.421875 27.421874h6.269531v11.613282c0 22.554687 18.351563 40.90625 40.910156 40.90625h43.136719c4.203125 0 7.605469-3.402344 7.605469-7.601563s-3.402344-7.605469-7.605469-7.605469h-43.140625c-14.171875 0-25.699218-11.527343-25.699218-25.699218v-11.613282h10.234374c15.121094 0 27.421876-12.304687 27.421876-27.421874 0-15.121094-12.300782-27.421876-27.421876-27.421876h-10.234374v-15.578124h10.234374c15.121094 0 27.421876-12.304688 27.421876-27.421876 0-15.121093-12.300782-27.421874-27.421876-27.421874h-10.234374v-15.578126h10.234374c15.121094 0 27.421876-12.300781 27.421876-27.421874 0-15.121094-12.300782-27.421876-27.421876-27.421876h-10.234374v-15.578124h10.234374c15.121094 0 27.421876-12.300782 27.421876-27.421876 0-15.121093-12.300782-27.421874-27.421876-27.421874h-10.234374v-15.578126h10.234374c15.121094 0 27.421876-12.300781 27.421876-27.421874 0-15.117188-12.300782-27.421876-27.421876-27.421876h-10.234374v-15.574218h10.234374c15.121094 0 27.421876-12.300782 27.421876-27.421875 0-15.121094-12.300782-27.421875-27.421876-27.421875h-10.234374v-11.617188c0-14.171875 11.53125-25.703125 25.703124-25.703125h310.160157c14.175781 0 25.710937 11.53125 25.710937 25.703125v52.308594c0 4.199219 3.402344 7.605469 7.601563 7.605469 4.203125 0 7.605469-3.40625 7.605469-7.605469v-52.308594c0-22.558594-18.355469-40.910156-40.921876-40.910156zm-313.410156 432.054688c0 6.734374-5.480468 12.214843-12.214844 12.214843h-31.710937c-6.734375 0-12.214844-5.480469-12.214844-12.214843 0-6.734376 5.480469-12.214844 12.214844-12.214844h31.710937c6.734376 0 12.214844 5.480468 12.214844 12.214844zm0-70.421876c0 6.734376-5.480468 12.214844-12.214844 12.214844h-31.710937c-6.734375 0-12.214844-5.480468-12.214844-12.214844 0-6.734374 5.480469-12.214843 12.214844-12.214843h31.710937c6.734376 0 12.214844 5.480469 12.214844 12.214843zm0-70.421874c0 6.734374-5.480468 12.214843-12.214844 12.214843h-31.710937c-6.734375 0-12.214844-5.480469-12.214844-12.214843 0-6.734376 5.480469-12.214844 12.214844-12.214844h31.710937c6.734376 0 12.214844 5.480468 12.214844 12.214844zm0-70.421876c0 6.738282-5.480468 12.214844-12.214844 12.214844h-31.710937c-6.734375 0-12.214844-5.476562-12.214844-12.214844 0-6.734374 5.480469-12.214843 12.214844-12.214843h31.710937c6.734376 0 12.214844 5.480469 12.214844 12.214843zm0-70.421874c0 6.738281-5.480468 12.214843-12.214844 12.214843h-17.828124c-.003907 0-.007813 0-.011719 0-.003907 0-.003907 0-.007813 0h-13.863281c-6.734375 0-12.214844-5.476562-12.214844-12.214843 0-6.734376 5.480469-12.210938 12.214844-12.210938h13.785156c.027344 0 .058594.003906.085938.003906.03125 0 .058593-.003906.089843-.003906h17.75c6.734376 0 12.214844 5.476562 12.214844 12.210938zm0-70.421876c0 6.738282-5.480468 12.214844-12.214844 12.214844h-17.800781c-.011719 0-.023437 0-.039062 0-.011719 0-.027344 0-.039063 0h-13.832031c-6.734375 0-12.214844-5.476562-12.214844-12.214844 0-6.734374 5.480469-12.210937 12.214844-12.210937h13.8125.058594.058593 17.78125c6.734376 0 12.214844 5.476563 12.214844 12.210937zm0 0"/><path d="m225.476562 197.980469c9.039063-9.828125 8.722657-24.925781-.71875-34.371094l-35.644531-35.644531c-5.1875-5.183594-12.34375-7.804688-19.65625-7.1875-7.304687.621094-13.925781 4.40625-18.164062 10.386718l-23.039063 32.507813c-16.269531 22.960937-15.289062 54.3125 2.386719 76.246094 38 47.148437 81.175781 90.324219 128.328125 128.324219 11.511719 9.273437 25.613281 13.953124 39.738281 13.953124 12.789063 0 25.59375-3.835937 36.507813-11.5625l32.507812-23.039062c5.980469-4.238281 9.765625-10.859375 10.386719-18.167969.617187-7.304687-2.003906-14.46875-7.1875-19.652343l-35.644531-35.644532c-9.445313-9.445312-24.542969-9.761718-34.371094-.71875l-21.691406 19.949219c-1.753906 1.613281-4.398438 1.769531-6.296875.378906-25.972657-19-48.773438-41.800781-67.773438-67.769531-1.390625-1.898438-1.230469-4.546875.378907-6.296875zm-54.734374-62.046875c.273437-.023438.542968-.035156.816406-.035156 2.542968 0 4.984375 1.003906 6.800781 2.820312l35.644531 35.644531c3.660156 3.660157 3.78125 9.511719.277344 13.324219l-6.457031 7.019531-48.53125-48.53125 4.40625-6.21875c1.644531-2.316406 4.210937-3.785156 7.042969-4.023437zm153.777343 148.949218 35.648438 35.644532c2.007812 2.011718 3.023437 4.789062 2.785156 7.617187-.238281 2.832031-1.707031 5.398438-4.027344 7.042969l-6.214843 4.40625-48.535157-48.53125 7.023438-6.460938c3.8125-3.503906 9.664062-3.378906 13.320312.28125zm-60.582031 21.132813c7.738281 5.664063 18.492188 5.050781 25.570312-1.460937l3.46875-3.1875 47.148438 47.148437-13.703125 9.707031c-17.4375 12.355469-41.25 11.605469-57.90625-1.820312-46.3125-37.320313-88.714844-79.722656-126.03125-126.027344-13.429687-16.664062-14.175781-40.472656-1.820313-57.910156l9.707032-13.699219 47.148437 47.144531-3.191406 3.46875c-6.507813 7.078125-7.121094 17.832032-1.457031 25.570313 19.921875 27.230469 43.832031 51.140625 71.066406 71.066406zm0 0"/></svg>